<svg xmlns="http://www.w3.org/2000/svg" width="36" height="36" viewBox="0 0 36 36">
  <path id="Icon_material-shopping-cart" data-name="Icon material-shopping-cart" d="M12.3,31.8a3.6,3.6,0,1,0,3.6,3.6A3.6,3.6,0,0,0,12.3,31.8ZM1.5,3V6.6H5.1l6.48,13.662-2.43,4.41A3.48,3.48,0,0,0,8.7,26.4,3.611,3.611,0,0,0,12.3,30H33.9V26.4H13.056a.446.446,0,0,1-.45-.45l.054-.216L14.28,22.8H27.69a3.583,3.583,0,0,0,3.15-1.854L37.284,9.264A1.759,1.759,0,0,0,37.5,8.4a1.805,1.805,0,0,0-1.8-1.8H9.078L7.386,3ZM30.3,31.8a3.6,3.6,0,1,0,3.6,3.6A3.6,3.6,0,0,0,30.3,31.8Z" transform="translate(-1.5 -3)" fill="#bababa"/>
</svg>
